<svg width="28" height="28" viewBox="0 0 28 28" fill="none" xmlns="http://www.w3.org/2000/svg">
<path d="M7.59766 26.1133H22.7734C23.2891 26.1133 23.7109 25.7031 23.7109 25.1758C23.7109 24.7656 23.4297 24.4023 23.0547 24.2734C21.5781 23.6875 21.2734 21.7773 22.7266 20.3125C23.1719 19.8672 23.7109 19.293 23.7109 18.1211V4.67969C23.7109 2.24219 22.5039 1 20.0781 1H7.63281C5.20703 1 4 2.23047 4 4.67969V22.4922C4 24.9062 5.21875 26.1133 7.59766 26.1133ZM7.70312 24.2266C6.51953 24.2266 5.88672 23.5938 5.88672 22.4805C5.88672 21.4258 6.63672 20.7461 7.80859 20.7461H19.832C19.9844 20.7461 20.125 20.7344 20.2422 20.7109C19.6914 21.9297 19.7852 23.2188 20.4062 24.2266H7.70312ZM7.35156 18.9648C6.98828 18.9648 6.68359 18.6602 6.68359 18.2852V3.48438C6.68359 3.10938 6.98828 2.81641 7.35156 2.81641C7.71484 2.81641 8.03125 3.10938 8.03125 3.48438V18.2852C8.03125 18.6602 7.71484 18.9648 7.35156 18.9648Z" fill="#FF9500"/>
</svg>
