<svg width="28" height="28" viewBox="0 0 28 28" fill="none" xmlns="http://www.w3.org/2000/svg">
<path d="M0 14.4852C0 16.4946 1.39227 17.5977 2.95857 17.5977C3.61602 17.5977 4.10912 17.4105 4.69889 17.0363C5.25 16.6916 5.64641 16.8983 5.64641 17.381V21.0254C5.64641 22.9658 6.65193 23.9606 8.57594 23.9606H11.1574C11.6215 23.9606 11.8246 23.5666 11.4959 23.0052C11.1188 22.4043 10.9351 21.902 10.9351 21.2322C10.9351 19.6366 12.0276 18.2183 14 18.2183C15.9724 18.2183 17.0553 19.6366 17.0553 21.2322C17.0553 21.902 16.8715 22.4043 16.5041 23.0052C16.1754 23.5666 16.3687 23.9606 16.8426 23.9606H19.4241C21.3481 23.9606 22.3536 22.9658 22.3536 21.0254V17.381C22.3536 16.8983 22.75 16.6916 23.2915 17.0363C23.8909 17.4105 24.384 17.5977 25.0317 17.5977C26.6077 17.5977 28 16.4946 28 14.4852C28 12.466 26.6077 11.3629 25.0317 11.3629C24.384 11.3629 23.8909 11.55 23.2915 11.9243C22.75 12.269 22.3536 12.0622 22.3536 11.5796V7.9352C22.3536 6.00466 21.3481 5 19.4241 5H16.8426C16.3687 5 16.1754 5.40384 16.5041 5.96527C16.8715 6.56609 17.0553 7.06843 17.0553 7.7382C17.0553 9.33385 15.9724 10.7522 14 10.7522C12.0276 10.7522 10.9351 9.33385 10.9351 7.7382C10.9351 7.06843 11.1188 6.56609 11.4959 5.96527C11.8246 5.40384 11.6215 5 11.1574 5H8.57594C6.65193 5 5.64641 6.00466 5.64641 7.9352V11.5796C5.64641 12.0622 5.25 12.269 4.69889 11.9243C4.10912 11.55 3.61602 11.3629 2.95857 11.3629C1.39227 11.3629 0 12.466 0 14.4852Z" fill="#FF9500"/>
</svg>
