<svg width="28" height="28" viewBox="0 0 28 28" fill="none" xmlns="http://www.w3.org/2000/svg">
<path d="M22.8633 24.707C23.3906 24.707 23.8242 24.2852 23.8242 23.7695C23.8242 23.2422 23.3906 22.8086 22.8633 22.8086H21.4336V15.0391C21.4336 10.7617 18.1406 7.45703 13.8633 7.45703C9.59766 7.45703 6.30469 10.7617 6.30469 15.0391V22.8086H4.85156C4.33594 22.8086 3.92578 23.2422 3.92578 23.7695C3.92578 24.2852 4.33594 24.707 4.85156 24.707H22.8633ZM14.8477 15.0742V22.8086H12.9023V15.0742C12.9023 14.5352 13.3242 14.0898 13.8633 14.0898C14.4023 14.0898 14.8477 14.5352 14.8477 15.0742ZM3.24609 15.8828C3.79688 15.8828 4.27734 15.4258 4.27734 14.8867C4.27734 14.3242 3.79688 13.8672 3.24609 13.8672H0.996094C0.457031 13.8672 0 14.3359 0 14.8867C0 15.4141 0.457031 15.8828 0.996094 15.8828H3.24609ZM5.64844 8.08984C6.03516 8.47656 6.67969 8.48828 7.06641 8.08984C7.46484 7.69141 7.45312 7.05859 7.06641 6.67188L5.48438 5.07812C5.10938 4.67969 4.45312 4.67969 4.05469 5.07812C3.66797 5.47656 3.66797 6.09766 4.05469 6.49609L5.64844 8.08984ZM12.8555 4.26953C12.8555 4.82031 13.3125 5.28906 13.8633 5.28906C14.4258 5.28906 14.8828 4.82031 14.8828 4.26953V2.01953C14.8828 1.46875 14.4141 1 13.8633 1C13.3125 1 12.8555 1.46875 12.8555 2.01953V4.26953ZM20.6484 6.67188C20.2617 7.05859 20.25 7.69141 20.6484 8.08984C21.0586 8.48828 21.6797 8.47656 22.0664 8.08984L23.6719 6.49609C24.0586 6.09766 24.0586 5.47656 23.6719 5.07812C23.2617 4.67969 22.6406 4.67969 22.2539 5.07812L20.6484 6.67188ZM26.7188 15.8828C27.2695 15.8828 27.7383 15.4141 27.7383 14.8867C27.7383 14.3359 27.2695 13.8672 26.7188 13.8672H24.4688C23.9297 13.8672 23.4609 14.3242 23.4609 14.8867C23.4609 15.4258 23.9297 15.8828 24.4688 15.8828H26.7188Z" fill="#FF9500"/>
</svg>
