<svg width="21" height="20" viewBox="0 0 21 20" fill="none" xmlns="http://www.w3.org/2000/svg">
<g clip-path="url(#clip0_156_5259)">
<path d="M20.3359 10C20.3359 4.47715 15.8588 0 10.3359 0C4.81309 0 0.335938 4.47715 0.335938 10C0.335938 14.9912 3.99277 19.1283 8.77344 19.8785V12.8906H6.23438V10H8.77344V7.79688C8.77344 5.29063 10.2664 3.90625 12.5506 3.90625C13.6443 3.90625 14.7891 4.10156 14.7891 4.10156V6.5625H13.5281C12.2859 6.5625 11.8984 7.3334 11.8984 8.125V10H14.6719L14.2285 12.8906H11.8984V19.8785C16.6791 19.1283 20.3359 14.9912 20.3359 10Z" fill="#333333"/>
</g>
<defs>
<clipPath id="clip0_156_5259">
<rect width="20" height="20" fill="white" transform="translate(0.335938)"/>
</clipPath>
</defs>
</svg>
