<svg width="21" height="20" viewBox="0 0 21 20" fill="none" xmlns="http://www.w3.org/2000/svg">
<g clip-path="url(#clip0_156_5265)">
<path d="M18.8555 0H1.8125C0.996094 0 0.335938 0.644531 0.335938 1.44141V18.5547C0.335938 19.3516 0.996094 20 1.8125 20H18.8555C19.6719 20 20.3359 19.3516 20.3359 18.5586V1.44141C20.3359 0.644531 19.6719 0 18.8555 0ZM6.26953 17.043H3.30078V7.49609H6.26953V17.043ZM4.78516 6.19531C3.83203 6.19531 3.0625 5.42578 3.0625 4.47656C3.0625 3.52734 3.83203 2.75781 4.78516 2.75781C5.73438 2.75781 6.50391 3.52734 6.50391 4.47656C6.50391 5.42188 5.73438 6.19531 4.78516 6.19531ZM17.3789 17.043H14.4141V12.4023C14.4141 11.2969 14.3945 9.87109 12.8711 9.87109C11.3281 9.87109 11.0937 11.0781 11.0937 12.3242V17.043H8.13281V7.49609H10.9766V8.80078H11.0156C11.4102 8.05078 12.3789 7.25781 13.8203 7.25781C16.8242 7.25781 17.3789 9.23438 17.3789 11.8047V17.043Z" fill="#333333"/>
</g>
<defs>
<clipPath id="clip0_156_5265">
<rect width="20" height="20" fill="white" transform="translate(0.335938)"/>
</clipPath>
</defs>
</svg>
