<svg width="21" height="20" viewBox="0 0 21 20" fill="none" xmlns="http://www.w3.org/2000/svg">
<g clip-path="url(#clip0_156_5262)">
<path d="M6.62773 18.125C14.173 18.125 18.3012 11.8723 18.3012 6.45155C18.3012 6.27577 18.2973 6.09608 18.2895 5.9203C19.0925 5.33955 19.7855 4.62021 20.3359 3.79608C19.588 4.12883 18.794 4.34615 17.9809 4.44061C18.837 3.92742 19.478 3.12123 19.7852 2.17147C18.9797 2.6488 18.0989 2.98551 17.1805 3.16718C16.5616 2.50963 15.7434 2.07426 14.8523 1.92838C13.9613 1.78249 13.0469 1.93421 12.2507 2.36008C11.4545 2.78595 10.8208 3.46225 10.4475 4.28443C10.0742 5.1066 9.98213 6.02885 10.1855 6.90858C8.55468 6.82674 6.95922 6.40309 5.50259 5.66508C4.04596 4.92708 2.76068 3.8912 1.73008 2.6246C1.20627 3.5277 1.04598 4.59637 1.2818 5.61341C1.51761 6.63045 2.13182 7.51954 2.99961 8.09999C2.34813 8.0793 1.71092 7.9039 1.14062 7.58827V7.63905C1.14004 8.58679 1.46769 9.50549 2.06786 10.239C2.66804 10.9725 3.50371 11.4755 4.43281 11.6625C3.82932 11.8276 3.19592 11.8517 2.58164 11.7328C2.84382 12.5479 3.35391 13.2607 4.04075 13.7719C4.72758 14.2831 5.55687 14.5672 6.41289 14.5844C4.95962 15.7259 3.16442 16.3451 1.31641 16.3422C0.988677 16.3417 0.66127 16.3216 0.335938 16.282C2.21332 17.4865 4.39721 18.1262 6.62773 18.125Z" fill="#333333"/>
</g>
<defs>
<clipPath id="clip0_156_5262">
<rect width="20" height="20" fill="white" transform="translate(0.335938)"/>
</clipPath>
</defs>
</svg>
